<?xml version="1.0" encoding="UTF-8"?>
<svg xmlns="http://www.w3.org/2000/svg" width="1600" height="2050" viewBox="0 0 1600 2050">
  <title>战斗 UI 低保真交互图</title>
  <style>
    .board-bg { fill: #f8f8f8; }
    .title { font: 700 34px "Microsoft YaHei", "Noto Sans CJK SC", Arial, sans-serif; fill: #111; }
    .subtitle { font: 18px "Microsoft YaHei", "Noto Sans CJK SC", Arial, sans-serif; fill: #444; }
    .screen-title { font: 700 22px "Microsoft YaHei", "Noto Sans CJK SC", Arial, sans-serif; fill: #111; }
    .label { font: 15px "Microsoft YaHei", "Noto Sans CJK SC", Arial, sans-serif; fill: #111; }
    .small { font: 13px "Microsoft YaHei", "Noto Sans CJK SC", Arial, sans-serif; fill: #222; }
    .tiny { font: 12px "Microsoft YaHei", "Noto Sans CJK SC", Arial, sans-serif; fill: #333; }
    .muted { fill: #666; }
    .panel { fill: #fff; stroke: #151515; stroke-width: 2; }
    .region { fill: #f3f3f3; stroke: #222; stroke-width: 1.5; }
    .region-light { fill: #fafafa; stroke: #222; stroke-width: 1.5; }
    .button { fill: #fff; stroke: #222; stroke-width: 1.5; rx: 5; }
    .button-active { fill: #e8e8e8; stroke: #111; stroke-width: 2.4; rx: 5; }
    .button-disabled { fill: #eeeeee; stroke: #999; stroke-width: 1.2; rx: 5; }
    .map-mark { fill: none; stroke: #111; stroke-width: 2; }
    .range { fill: #e9e9e9; stroke: #555; stroke-width: 1.2; }
    .preview { fill: none; stroke: #111; stroke-width: 2; stroke-dasharray: 8 5; }
    .invalid { fill: none; stroke: #444; stroke-width: 2; stroke-dasharray: 3 3; }
  </style>

  <defs>
    <symbol id="hud-frame" viewBox="0 0 720 420">
      <rect class="panel" x="0" y="0" width="720" height="420" rx="4"/>
      <rect class="region" x="0" y="0" width="720" height="44"/>
      <rect class="region-light" x="0" y="44" width="500" height="258"/>
      <rect class="region-light" x="500" y="44" width="220" height="258"/>
      <rect class="region" x="0" y="302" width="720" height="38"/>
      <rect class="region" x="0" y="340" width="720" height="80"/>
      <text class="tiny muted" x="12" y="28">TopTurnBar</text>
      <text class="tiny muted" x="12" y="66">BattleMapViewport</text>
      <text class="tiny muted" x="512" y="66">InspectorPanel</text>
      <text class="tiny muted" x="12" y="326">PromptBar</text>
      <text class="tiny muted" x="12" y="363">ActionBar</text>
    </symbol>
  </defs>

  <rect class="board-bg" x="0" y="0" width="1600" height="2050"/>
  <text class="title" x="60" y="58">战斗 UI 低保真交互图</text>
  <text class="subtitle" x="60" y="88">只表达区域分布和功能变化，不定义最终样式。后续可用正式素材替换框线表现。</text>

  <g transform="translate(60 130)">
    <text class="screen-title" x="0" y="-18">01 观察地图</text>
    <use href="#hud-frame"/>
    <text class="label" x="112" y="28">第 1 回合</text>
    <text class="label" x="230" y="28">我方行动</text>
    <text class="small" x="445" y="28">回合顺序: [我] [敌] [我] [敌]</text>
    <text class="label" x="190" y="165">地图区域</text>
    <path class="map-mark" d="M246 190 L246 174 L262 174 M318 174 L334 174 L334 190 M334 246 L334 262 L318 262 M262 262 L246 262 L246 246"/>
    <text class="tiny" x="258" y="222">Hover 地块</text>
    <rect class="button" x="530" y="94" width="160" height="118"/>
    <text class="label" x="548" y="120">查看信息</text>
    <text class="small" x="548" y="148">坐标: 12, 8</text>
    <text class="small" x="548" y="174">高度: 1</text>
    <text class="small" x="548" y="200">通行: 可以</text>
    <text class="label" x="118" y="326">请选择一个单位</text>
    <text class="small" x="118" y="366">当前单位: 未选择</text>
    <rect class="button-disabled" x="118" y="378" width="92" height="28"/>
    <rect class="button-disabled" x="220" y="378" width="92" height="28"/>
    <rect class="button-disabled" x="322" y="378" width="92" height="28"/>
    <rect class="button-disabled" x="424" y="378" width="92" height="28"/>
    <rect class="button-disabled" x="526" y="378" width="104" height="28"/>
    <text class="tiny muted" x="144" y="397">移动</text>
    <text class="tiny muted" x="246" y="397">攻击</text>
    <text class="tiny muted" x="348" y="397">技能</text>
    <text class="tiny muted" x="450" y="397">待机</text>
    <text class="tiny muted" x="552" y="397">结束行动</text>
  </g>

  <g transform="translate(820 130)">
    <text class="screen-title" x="0" y="-18">02 选中我方单位</text>
    <use href="#hud-frame"/>
    <text class="label" x="112" y="28">第 1 回合</text>
    <text class="label" x="230" y="28">我方行动</text>
    <text class="label" x="340" y="28">当前: 骑士</text>
    <text class="small" x="520" y="28">[骑士] [敌] [弓手]</text>
    <text class="label" x="190" y="165">地图区域</text>
    <circle class="map-mark" cx="290" cy="210" r="31"/>
    <text class="tiny" x="258" y="216">选中单位</text>
    <path class="map-mark" d="M356 172 L356 158 L370 158 M420 158 L434 158 L434 172 M434 226 L434 240 L420 240 M370 240 L356 240 L356 226"/>
    <text class="tiny" x="370" y="203">Hover</text>
    <rect class="button" x="530" y="92" width="160" height="138"/>
    <text class="label" x="548" y="118">单位信息</text>
    <text class="small" x="548" y="146">名称: 骑士</text>
    <text class="small" x="548" y="172">生命: 24/24</text>
    <text class="small" x="548" y="198">行动点: 3/3</text>
    <text class="small" x="548" y="224">状态: 无</text>
    <text class="label" x="118" y="326">请选择行动</text>
    <text class="small" x="118" y="366">骑士 | HP 24/24 | AP 3/3</text>
    <rect class="button" x="118" y="378" width="92" height="28"/>
    <rect class="button" x="220" y="378" width="92" height="28"/>
    <rect class="button" x="322" y="378" width="92" height="28"/>
    <rect class="button" x="424" y="378" width="92" height="28"/>
    <rect class="button" x="526" y="378" width="104" height="28"/>
    <text class="tiny" x="137" y="397">移动 1AP</text>
    <text class="tiny" x="239" y="397">攻击 1AP</text>
    <text class="tiny" x="348" y="397">技能</text>
    <text class="tiny" x="450" y="397">待机</text>
    <text class="tiny" x="552" y="397">结束行动</text>
  </g>

  <g transform="translate(60 610)">
    <text class="screen-title" x="0" y="-18">03 移动目标选择</text>
    <use href="#hud-frame"/>
    <text class="label" x="112" y="28">第 1 回合</text>
    <text class="label" x="230" y="28">我方行动</text>
    <text class="label" x="340" y="28">当前: 骑士</text>
    <circle class="map-mark" cx="185" cy="197" r="26"/>
    <text class="tiny" x="160" y="202">骑士</text>
    <rect class="range" x="235" y="138" width="70" height="42"/>
    <rect class="range" x="308" y="138" width="70" height="42"/>
    <rect class="range" x="235" y="184" width="70" height="42"/>
    <rect class="range" x="308" y="184" width="70" height="42"/>
    <rect class="range" x="381" y="184" width="70" height="42"/>
    <text class="tiny" x="260" y="163">可移动</text>
    <text class="tiny" x="333" y="209">范围</text>
    <path class="preview" d="M210 196 C250 196, 286 204, 326 204 S384 205, 416 205"/>
    <rect class="map-mark" x="392" y="187" width="58" height="36"/>
    <text class="tiny" x="400" y="210">目标格</text>
    <rect class="button" x="530" y="92" width="160" height="128"/>
    <text class="label" x="548" y="118">移动预览</text>
    <text class="small" x="548" y="146">目标: 15, 8</text>
    <text class="small" x="548" y="172">路径长度: 4</text>
    <text class="small" x="548" y="198">消耗: 1 AP</text>
    <text class="label" x="118" y="326">请选择移动目标 / 点击确认移动</text>
    <text class="small" x="118" y="366">骑士 | HP 24/24 | AP 3/3</text>
    <rect class="button-active" x="118" y="378" width="92" height="28"/>
    <rect class="button" x="220" y="378" width="92" height="28"/>
    <rect class="button" x="322" y="378" width="92" height="28"/>
    <rect class="button" x="424" y="378" width="92" height="28"/>
    <rect class="button" x="526" y="378" width="104" height="28"/>
    <text class="tiny" x="137" y="397">移动</text>
    <text class="tiny" x="246" y="397">攻击</text>
    <text class="tiny" x="348" y="397">技能</text>
    <text class="tiny" x="450" y="397">待机</text>
    <text class="tiny" x="552" y="397">结束行动</text>
  </g>

  <g transform="translate(820 610)">
    <text class="screen-title" x="0" y="-18">04 攻击目标选择</text>
    <use href="#hud-frame"/>
    <text class="label" x="112" y="28">第 1 回合</text>
    <text class="label" x="230" y="28">我方行动</text>
    <text class="label" x="340" y="28">当前: 骑士</text>
    <circle class="map-mark" cx="180" cy="203" r="26"/>
    <text class="tiny" x="158" y="208">骑士</text>
    <rect class="range" x="238" y="132" width="70" height="42"/>
    <rect class="range" x="312" y="132" width="70" height="42"/>
    <rect class="range" x="386" y="132" width="70" height="42"/>
    <rect class="range" x="312" y="178" width="70" height="42"/>
    <rect class="range" x="386" y="178" width="70" height="42"/>
    <text class="tiny" x="270" y="157">攻击范围</text>
    <circle class="preview" cx="420" cy="199" r="29"/>
    <text class="tiny" x="397" y="204">敌人</text>
    <rect class="button" x="530" y="92" width="160" height="128"/>
    <text class="label" x="548" y="118">攻击预览</text>
    <text class="small" x="548" y="146">目标: 敌人</text>
    <text class="small" x="548" y="172">预计伤害: 6</text>
    <text class="small" x="548" y="198">消耗: 1 AP</text>
    <text class="label" x="118" y="326">请选择攻击目标 / 点击确认攻击</text>
    <text class="small" x="118" y="366">骑士 | HP 24/24 | AP 3/3</text>
    <rect class="button" x="118" y="378" width="92" height="28"/>
    <rect class="button-active" x="220" y="378" width="92" height="28"/>
    <rect class="button" x="322" y="378" width="92" height="28"/>
    <rect class="button" x="424" y="378" width="92" height="28"/>
    <rect class="button" x="526" y="378" width="104" height="28"/>
    <text class="tiny" x="144" y="397">移动</text>
    <text class="tiny" x="246" y="397">攻击</text>
    <text class="tiny" x="348" y="397">技能</text>
    <text class="tiny" x="450" y="397">待机</text>
    <text class="tiny" x="552" y="397">结束行动</text>
  </g>

  <g transform="translate(60 1090)">
    <text class="screen-title" x="0" y="-18">05 技能目标选择</text>
    <use href="#hud-frame"/>
    <text class="label" x="112" y="28">第 1 回合</text>
    <text class="label" x="230" y="28">我方行动</text>
    <text class="label" x="340" y="28">当前: 弓手</text>
    <circle class="map-mark" cx="170" cy="203" r="26"/>
    <text class="tiny" x="148" y="208">弓手</text>
    <rect class="range" x="228" y="124" width="70" height="42"/>
    <rect class="range" x="302" y="124" width="70" height="42"/>
    <rect class="range" x="376" y="124" width="70" height="42"/>
    <rect class="range" x="302" y="170" width="70" height="42"/>
    <rect class="range" x="376" y="170" width="70" height="42"/>
    <rect class="range" x="302" y="216" width="70" height="42"/>
    <text class="tiny" x="276" y="149">技能范围</text>
    <rect class="preview" x="382" y="170" width="70" height="42"/>
    <rect class="preview" x="382" y="216" width="70" height="42"/>
    <text class="tiny" x="392" y="198">影响</text>
    <text class="tiny" x="392" y="244">范围</text>
    <rect class="button" x="530" y="92" width="160" height="138"/>
    <text class="label" x="548" y="118">技能预览</text>
    <text class="small" x="548" y="146">技能: 推击</text>
    <text class="small" x="548" y="172">影响: 2 格</text>
    <text class="small" x="548" y="198">消耗: 2 AP</text>
    <text class="small" x="548" y="224">冷却: 0</text>
    <text class="label" x="118" y="326">请选择技能目标 / 点击确认释放</text>
    <text class="small" x="118" y="366">弓手 | HP 18/18 | AP 2/3</text>
    <rect class="button" x="118" y="378" width="92" height="28"/>
    <rect class="button" x="220" y="378" width="92" height="28"/>
    <rect class="button-active" x="322" y="378" width="130" height="28"/>
    <rect class="button" x="462" y="378" width="80" height="28"/>
    <rect class="button" x="552" y="378" width="104" height="28"/>
    <text class="tiny" x="144" y="397">移动</text>
    <text class="tiny" x="246" y="397">攻击</text>
    <text class="tiny" x="338" y="397">技能: 推击</text>
    <text class="tiny" x="486" y="397">待机</text>
    <text class="tiny" x="578" y="397">结束行动</text>
  </g>

  <g transform="translate(820 1090)">
    <text class="screen-title" x="0" y="-18">06 行动结算中</text>
    <use href="#hud-frame"/>
    <text class="label" x="112" y="28">第 1 回合</text>
    <text class="label" x="230" y="28">我方行动</text>
    <text class="label" x="340" y="28">当前: 骑士</text>
    <path class="preview" d="M150 210 C210 180, 275 184, 340 206 S432 216, 454 190"/>
    <circle class="map-mark" cx="150" cy="210" r="26"/>
    <rect class="preview" x="424" y="172" width="60" height="40"/>
    <text class="tiny" x="190" y="178">锁定本次操作预览</text>
    <text class="tiny" x="132" y="215">起点</text>
    <text class="tiny" x="436" y="197">终点</text>
    <rect class="button" x="530" y="92" width="160" height="128"/>
    <text class="label" x="548" y="118">结算信息</text>
    <text class="small" x="548" y="146">行动中</text>
    <text class="small" x="548" y="172">目标: 15, 8</text>
    <text class="small" x="548" y="198">结果: 等待</text>
    <text class="label" x="118" y="326">移动中 / 攻击中 / 释放中</text>
    <text class="small" x="118" y="366">骑士 | HP 24/24 | AP --</text>
    <rect class="button-disabled" x="118" y="378" width="92" height="28"/>
    <rect class="button-disabled" x="220" y="378" width="92" height="28"/>
    <rect class="button-disabled" x="322" y="378" width="92" height="28"/>
    <rect class="button-disabled" x="424" y="378" width="92" height="28"/>
    <rect class="button-disabled" x="526" y="378" width="104" height="28"/>
    <text class="tiny muted" x="144" y="397">移动</text>
    <text class="tiny muted" x="246" y="397">攻击</text>
    <text class="tiny muted" x="348" y="397">技能</text>
    <text class="tiny muted" x="450" y="397">待机</text>
    <text class="tiny muted" x="552" y="397">结束行动</text>
  </g>

  <g transform="translate(60 1570)">
    <text class="screen-title" x="0" y="-18">07 敌方回合</text>
    <use href="#hud-frame"/>
    <text class="label" x="112" y="28">第 1 回合</text>
    <text class="label" x="230" y="28">敌方行动</text>
    <text class="label" x="340" y="28">当前: 敌方战士</text>
    <text class="small" x="520" y="28">[敌] [我] [敌] [我]</text>
    <circle class="preview" cx="278" cy="190" r="32"/>
    <text class="tiny" x="250" y="195">敌方单位</text>
    <path class="invalid" d="M306 210 C340 232, 370 232, 420 220"/>
    <rect class="invalid" x="404" y="202" width="56" height="38"/>
    <text class="tiny" x="330" y="248">敌方意图预览 可选</text>
    <rect class="button" x="530" y="92" width="160" height="138"/>
    <text class="label" x="548" y="118">敌方信息</text>
    <text class="small" x="548" y="146">名称: 战士</text>
    <text class="small" x="548" y="172">生命: 20/20</text>
    <text class="small" x="548" y="198">意图: 攻击</text>
    <text class="small" x="548" y="224">目标: 骑士</text>
    <text class="label" x="118" y="326">敌方正在行动</text>
    <text class="small" x="118" y="366">当前单位: 无法操作</text>
    <rect class="button-disabled" x="118" y="378" width="92" height="28"/>
    <rect class="button-disabled" x="220" y="378" width="92" height="28"/>
    <rect class="button-disabled" x="322" y="378" width="92" height="28"/>
    <rect class="button-disabled" x="424" y="378" width="92" height="28"/>
    <rect class="button-disabled" x="526" y="378" width="104" height="28"/>
    <text class="tiny muted" x="144" y="397">移动</text>
    <text class="tiny muted" x="246" y="397">攻击</text>
    <text class="tiny muted" x="348" y="397">技能</text>
    <text class="tiny muted" x="450" y="397">待机</text>
    <text class="tiny muted" x="552" y="397">结束行动</text>
  </g>

  <g transform="translate(820 1570)">
    <text class="screen-title" x="0" y="-18">图例和评审点</text>
    <rect class="panel" x="0" y="0" width="720" height="420" rx="4"/>
    <text class="label" x="32" y="48">线框图只评审:</text>
    <text class="small" x="52" y="82">1. 每个状态下信息放在哪个区域。</text>
    <text class="small" x="52" y="112">2. 玩家每次点击或 hover 后，哪些区域发生变化。</text>
    <text class="small" x="52" y="142">3. 行动按钮、地图范围、右侧详情、提示文字是否同步。</text>
    <text class="small" x="52" y="172">4. 取消、非法点击、敌方回合是否有清晰反馈。</text>
    <line x1="32" y1="206" x2="688" y2="206" stroke="#222" stroke-width="1.5"/>
    <rect class="button" x="52" y="238" width="92" height="28"/>
    <text class="small" x="166" y="258">普通按钮</text>
    <rect class="button-active" x="52" y="282" width="92" height="28"/>
    <text class="small" x="166" y="302">当前 active 行动</text>
    <rect class="button-disabled" x="52" y="326" width="92" height="28"/>
    <text class="small" x="166" y="346">不可用按钮</text>
    <rect class="range" x="390" y="238" width="74" height="38"/>
    <text class="small" x="486" y="262">范围格</text>
    <rect class="preview" x="390" y="300" width="74" height="38"/>
    <text class="small" x="486" y="324">hover / 影响预览</text>
  </g>
</svg>
